<svg xmlns="http://www.w3.org/2000/svg" xmlns:xlink="http://www.w3.org/1999/xlink" width="500" zoomAndPan="magnify" viewBox="0 0 375 374.999991" height="500" preserveAspectRatio="xMidYMid meet" version="1.0"><defs><clipPath id="7b66652443"><path d="M 15 14.8125 L 360 14.8125 L 360 360.5625 L 15 360.5625 Z M 15 14.8125 " clip-rule="nonzero"/></clipPath></defs><g clip-path="url(#7b66652443)"><path fill="#000000" d="M 331.332031 14.8125 L 43.835938 14.8125 C 27.941406 14.8125 15.15625 27.769531 15.15625 43.492188 L 15.15625 331.503906 C 15.15625 347.402344 28.113281 360.1875 43.835938 360.1875 L 331.160156 360.1875 C 347.054688 360.1875 359.839844 347.226562 359.839844 331.503906 L 359.839844 43.492188 C 360.011719 27.769531 347.226562 14.8125 331.332031 14.8125 Z M 117.265625 299.714844 L 66.296875 299.714844 L 66.296875 146.636719 L 117.265625 146.636719 Z M 91.695312 128.148438 C 75.628906 128.148438 62.667969 115.191406 62.667969 99.125 C 62.667969 83.054688 75.628906 70.097656 91.695312 70.097656 C 107.761719 70.097656 120.722656 83.054688 120.722656 99.125 C 120.722656 115.191406 107.761719 128.148438 91.695312 128.148438 Z M 309.042969 299.714844 L 257.902344 299.714844 L 256.695312 208.835938 C 256.695312 208.835938 257.902344 184.648438 231.46875 184.820312 C 205.035156 184.992188 201.40625 208.835938 201.40625 208.835938 L 201.40625 299.714844 L 149.917969 299.714844 L 149.917969 146.636719 L 199.332031 146.636719 L 199.332031 167.714844 C 199.332031 167.714844 201.40625 160.804688 212.808594 152.683594 C 224.210938 144.5625 243.046875 142.835938 251.164062 143.183594 C 259.285156 143.527344 270.34375 142.144531 288.828125 154.929688 C 308.699219 168.578125 309.21875 204.34375 309.21875 204.34375 Z M 309.042969 299.714844 " fill-opacity="1" fill-rule="nonzero"/></g></svg>